<?xml version="1.0" standalone="no"?>
<!DOCTYPE svg PUBLIC "-//W3C//DTD SVG 20010904//EN"
 "http://www.w3.org/TR/2001/REC-SVG-20010904/DTD/svg10.dtd">
<svg version="1.0" xmlns="http://www.w3.org/2000/svg"
 width="900.000000pt" height="900.000000pt" viewBox="0 0 900.000000 900.000000"
 preserveAspectRatio="xMidYMid meet">

<g transform="translate(0.000000,900.000000) scale(0.100000,-0.100000)"
fill="#000000" stroke="none">
<path d="M2010 8149 c-146 -21 -277 -97 -363 -209 -40 -51 -737 -1439 -767
-1524 -39 -113 -41 -182 -38 -971 3 -756 3 -760 26 -825 27 -81 68 -151 122
-212 l42 -48 -42 -47 c-57 -64 -96 -134 -123 -218 -22 -69 -22 -80 -22 -580 0
-465 2 -515 18 -570 24 -77 68 -156 125 -223 l45 -53 -36 -37 c-49 -50 -103
-144 -130 -222 -20 -62 -21 -84 -25 -537 -4 -543 1 -596 64 -721 69 -135 200
-244 349 -289 57 -17 204 -18 3210 -21 3506 -3 3236 -8 3385 66 101 50 195
143 244 243 63 128 68 181 64 722 -4 453 -5 475 -25 537 -27 78 -81 172 -130
222 l-36 37 39 46 c61 72 102 144 126 220 23 69 23 77 23 580 0 500 0 511 -22
580 -27 84 -66 154 -123 218 l-42 47 42 48 c54 61 95 131 122 212 23 65 23 69
26 820 3 782 0 865 -38 974 -29 86 -727 1475 -769 1529 -42 56 -136 131 -201
160 -124 55 67 52 -2615 53 -1358 1 -2495 -2 -2525 -7z m4905 -282 c78 -2 98
-7 138 -30 25 -15 57 -42 71 -60 32 -42 702 -1376 727 -1446 10 -30 19 -74 19
-98 l0 -43 -3375 0 -3375 0 6 43 c11 81 46 159 385 837 360 720 372 740 457
778 24 11 78 18 157 22 123 5 4627 3 4790 -3z m958 -2553 c-1 -584 -1 -591
-22 -640 -30 -68 -94 -130 -159 -154 -52 -20 -82 -20 -3192 -20 -3106 0 -3140
0 -3192 20 -67 25 -124 79 -155 148 l-25 53 -1 590 c-1 325 0 593 2 595 2 2
1521 3 3374 2 l3370 -3 0 -591z m-171 -1116 c56 -25 123 -93 147 -148 21 -48
21 -64 23 -532 2 -483 2 -483 -20 -533 -29 -63 -73 -109 -137 -143 l-50 -27
-3165 0 -3165 0 -50 27 c-64 34 -108 80 -136 143 -22 49 -22 56 -23 530 l0
480 23 53 c29 65 102 133 168 155 44 14 322 16 3198 14 2921 -2 3153 -3 3187
-19z m-19 -1682 c84 -30 150 -96 175 -176 16 -50 19 -960 4 -1016 -28 -98
-118 -175 -225 -192 -96 -14 -6260 -9 -6313 6 -98 28 -175 118 -193 225 -14
85 -5 929 11 977 26 82 90 145 177 176 55 20 6309 19 6364 0z"/>
<path d="M2038 7575 c-94 -52 -87 -198 12 -247 33 -17 143 -18 1885 -18 1794
0 1851 1 1892 19 88 40 105 157 33 226 l-31 30 -1882 2 c-1627 2 -1886 0
-1909 -12z"/>
<path d="M6253 7570 c-94 -57 -80 -202 24 -246 25 -11 101 -14 335 -14 338 0
351 2 395 69 41 61 21 154 -41 192 -29 18 -56 19 -356 19 -305 0 -327 -1 -357
-20z"/>
<path d="M6755 5602 c-168 -62 -270 -198 -282 -373 -20 -281 246 -504 517
-435 125 32 223 113 282 234 31 63 33 73 33 172 -1 86 -5 116 -24 163 -32 82
-123 177 -209 219 -59 29 -76 33 -166 36 -79 2 -112 -2 -151 -16z m234 -262
c38 -26 70 -90 71 -138 0 -106 -107 -190 -210 -162 -147 40 -172 240 -40 312
48 26 134 21 179 -12z"/>
<path d="M1753 5460 c-57 -34 -63 -59 -63 -258 0 -169 1 -181 23 -213 62 -93
189 -87 240 12 15 30 17 57 15 214 -3 162 -5 183 -23 207 -45 59 -130 76 -192
38z"/>
<path d="M2454 5461 c-55 -34 -64 -69 -64 -255 0 -182 7 -217 55 -254 57 -45
137 -37 191 19 l29 30 3 189 c4 211 -2 234 -61 270 -41 26 -112 26 -153 1z"/>
<path d="M3151 5454 c-54 -45 -61 -75 -61 -248 0 -120 4 -165 16 -196 31 -77
111 -108 186 -71 72 34 83 63 85 226 4 248 -20 305 -134 313 -53 4 -62 1 -92
-24z"/>
<path d="M3863 5460 c-59 -36 -65 -59 -61 -270 l3 -189 29 -30 c72 -76 186
-59 230 33 22 48 23 338 1 393 -31 76 -130 107 -202 63z"/>
<path d="M4564 5461 c-55 -34 -64 -69 -64 -258 0 -140 3 -174 18 -202 50 -99
177 -105 239 -12 22 32 23 44 23 213 0 199 -6 224 -63 258 -41 26 -112 26
-153 1z"/>
<path d="M5110 5302 c-50 -50 -59 -94 -31 -156 16 -37 29 -51 63 -66 41 -18
69 -20 488 -20 510 0 496 -2 539 83 30 60 23 104 -24 155 l-33 37 -482 3 -482
3 -38 -39z"/>
<path d="M6800 3927 c-240 -56 -384 -303 -312 -534 23 -73 48 -114 108 -175
81 -84 233 -139 339 -123 319 49 479 392 305 653 -96 143 -277 217 -440 179z
m177 -265 c74 -40 104 -153 61 -227 -34 -57 -80 -85 -142 -85 -120 0 -199 102
-166 213 14 49 68 103 113 115 36 9 101 1 134 -16z"/>
<path d="M1770 3782 c-19 -9 -45 -32 -57 -51 -22 -32 -23 -44 -23 -213 0 -186
5 -212 46 -250 11 -9 39 -21 62 -28 39 -10 49 -9 90 12 74 37 82 62 82 263 0
200 -8 225 -80 263 -53 27 -74 27 -120 4z"/>
<path d="M2471 3778 c-73 -38 -81 -63 -81 -263 0 -147 3 -175 19 -205 49 -93
187 -97 241 -7 18 29 20 51 20 212 0 161 -2 183 -20 212 -41 68 -109 87 -179
51z"/>
<path d="M3172 3781 c-34 -16 -47 -30 -63 -67 -19 -41 -20 -62 -17 -212 3
-153 5 -170 26 -203 38 -62 135 -83 190 -42 65 48 67 57 67 258 0 169 -2 186
-21 211 -51 68 -113 87 -182 55z"/>
<path d="M3885 3786 c-16 -7 -41 -26 -55 -41 -25 -26 -25 -30 -28 -212 -4
-202 1 -227 49 -267 68 -58 174 -32 211 51 18 40 19 63 16 216 -3 159 -5 174
-25 203 -22 31 -86 64 -121 64 -9 -1 -30 -7 -47 -14z"/>
<path d="M4596 3790 c-15 -5 -37 -17 -48 -27 -41 -36 -48 -74 -48 -250 0 -190
9 -222 69 -257 44 -26 113 -25 149 1 55 40 62 71 62 263 0 156 -2 178 -20 207
-35 58 -101 83 -164 63z"/>
<path d="M5157 3646 c-51 -19 -63 -31 -83 -82 -22 -57 -8 -110 40 -152 33 -29
38 -30 168 -37 73 -4 284 -5 468 -3 329 3 336 3 372 26 51 32 76 96 59 154
-16 51 -48 83 -97 97 -61 17 -878 14 -927 -3z"/>
<path d="M6780 2234 c-119 -32 -214 -113 -273 -233 -30 -61 -32 -73 -32 -171
0 -97 2 -110 31 -171 75 -158 215 -249 384 -249 123 0 221 42 307 131 80 84
118 192 111 318 -15 262 -271 444 -528 375z m208 -261 c39 -29 69 -77 77 -124
6 -32 2 -50 -19 -92 -55 -111 -182 -139 -269 -58 -42 38 -57 73 -57 131 0 74
37 133 100 159 40 17 136 8 168 -16z"/>
<path d="M1775 2096 c-16 -7 -41 -26 -55 -41 -25 -26 -25 -30 -28 -215 -4
-211 2 -234 61 -271 45 -28 127 -22 163 12 47 43 54 75 54 251 0 178 -8 212
-61 251 -34 24 -96 31 -134 13z"/>
<path d="M2471 2092 c-70 -35 -76 -53 -79 -249 -4 -195 1 -216 55 -263 62 -55
170 -34 208 40 14 26 16 62 13 220 -3 185 -3 189 -28 216 -28 30 -78 54 -112
54 -13 0 -38 -8 -57 -18z"/>
<path d="M3170 2092 c-22 -12 -44 -35 -58 -63 -22 -42 -23 -53 -20 -214 3
-145 6 -175 21 -198 59 -90 194 -87 244 5 15 28 18 58 18 208 0 164 -1 177
-23 211 -40 65 -116 86 -182 51z"/>
<path d="M3872 2092 c-67 -37 -72 -55 -72 -262 0 -166 2 -188 20 -217 57 -94
202 -80 246 24 10 23 14 80 14 195 0 178 -8 212 -61 251 -38 27 -106 32 -147
9z"/>
<path d="M4580 2092 c-19 -9 -45 -32 -57 -51 -22 -32 -23 -44 -23 -208 0 -140
3 -182 16 -209 46 -97 196 -98 248 -2 15 29 17 57 14 220 -3 183 -3 187 -28
213 -52 56 -108 68 -170 37z"/>
<path d="M5142 1953 c-90 -44 -105 -158 -31 -229 l30 -29 473 -3 472 -3 35 23
c93 63 87 190 -12 240 -31 16 -75 18 -484 18 -394 0 -454 -2 -483 -17z"/>
</g>
</svg>
